<svg width="29" height="29" viewBox="0 0 29 29" fill="none" xmlns="http://www.w3.org/2000/svg">
<path d="M21.25 1.25C18.4517 1.25024 15.8708 2.76025 14.5 5.19995C13.1292 2.76025 10.5483 1.25024 7.75 1.25C3.46997 1.25 0 5.21997 0 9.5C0 20.25 14.5 27.75 14.5 27.75C14.5 27.75 29 20.25 29 9.5C29 5.21997 25.53 1.25 21.25 1.25Z" fill="#00F0FF"/>
<path d="M2 9.5C2 5.54004 4.97192 1.85254 8.80591 1.32202C8.45605 1.27393 8.10327 1.24976 7.75 1.25C3.46997 1.25 0 5.21997 0 9.5C0 20.25 14.5 27.75 14.5 27.75C14.5 27.75 14.875 27.5554 15.5 27.188C12.2241 25.2615 2 18.5281 2 9.5Z" fill="#00CBD8"/>
</svg>
