<svg width="27" height="23" viewBox="0 0 27 23" fill="none" xmlns="http://www.w3.org/2000/svg">
<path d="M19.3443 0.000522564C17.092 -0.0115142 14.9508 0.97766 13.5 2.70049C12.0582 0.965885 9.91111 -0.0261023 7.65565 0.000522564C3.42754 0.000522564 0 3.42806 0 7.65618C0 14.9018 12.6456 21.9764 13.1582 22.2499C13.3651 22.3881 13.6349 22.3881 13.8418 22.2499C14.3544 21.9764 27 15.0043 27 7.65618C27 3.42806 23.5724 0.000522564 19.3443 0.000522564ZM13.5 20.8828C11.5177 19.7208 1.36709 13.5347 1.36709 7.65618C1.36709 4.18311 4.18258 1.36755 7.65572 1.36755C9.78257 1.33961 11.773 2.41239 12.919 4.20424C13.1517 4.52511 13.6005 4.59661 13.9214 4.36385C13.9827 4.31937 14.0366 4.26553 14.081 4.20424C15.9817 1.29742 19.879 0.481797 22.7858 2.3825C24.5653 3.54607 25.6364 5.52998 25.6328 7.65611C25.6329 13.603 15.4822 19.7549 13.5 20.8828Z" fill="white"/>
<path d="M19.3443 0.000522564C17.092 -0.0115142 14.9508 0.97766 13.5 2.70049C12.0582 0.965885 9.91111 -0.0261023 7.65565 0.000522564C3.42754 0.000522564 0 3.42806 0 7.65618C0 14.9018 12.6456 21.9764 13.1582 22.2499C13.3651 22.3881 13.6349 22.3881 13.8418 22.2499C14.3544 21.9764 27 15.0043 27 7.65618C27 3.42806 23.5724 0.000522564 19.3443 0.000522564ZM13.5 20.8828C11.5177 19.7208 1.36709 13.5347 1.36709 7.65618C1.36709 4.18311 4.18258 1.36755 7.65572 1.36755C9.78257 1.33961 11.773 2.41239 12.919 4.20424C13.1517 4.52511 13.6005 4.59661 13.9214 4.36385C13.9827 4.31937 14.0366 4.26553 14.081 4.20424C15.9817 1.29742 19.879 0.481797 22.7858 2.3825C24.5653 3.54607 25.6364 5.52998 25.6328 7.65611C25.6329 13.603 15.4822 19.7549 13.5 20.8828Z" stroke="white"/>
</svg>
